<?xml version="1.0" standalone="no"?>
<!DOCTYPE svg PUBLIC "-//W3C//DTD SVG 20010904//EN"
 "http://www.w3.org/TR/2001/REC-SVG-20010904/DTD/svg10.dtd">
<svg version="1.0" xmlns="http://www.w3.org/2000/svg"
 width="1500.000000pt" height="1500.000000pt" viewBox="0 0 1500.000000 1500.000000"
 preserveAspectRatio="xMidYMid meet">
<metadata>
Created by potrace 1.11, written by Peter Selinger 2001-2013
</metadata>
<g transform="translate(0.000000,1500.000000) scale(0.100000,-0.100000)"
fill="#000000" stroke="none">
<path d="M12267 14363 c-1 -1 -67 -4 -147 -8 -80 -3 -165 -8 -190 -10 -25 -2
-88 -7 -140 -10 -52 -4 -108 -8 -125 -10 -16 -2 -64 -6 -105 -9 -41 -4 -93 -9
-115 -11 -22 -2 -65 -7 -95 -10 -30 -3 -71 -7 -90 -10 -19 -3 -60 -7 -90 -10
-30 -3 -89 -10 -130 -15 -41 -5 -97 -12 -125 -15 -27 -4 -61 -8 -75 -11 -22
-3 -81 -11 -225 -30 -40 -5 -72 -10 -123 -19 -16 -3 -46 -7 -68 -10 -48 -5
-97 -13 -434 -70 -146 -25 -278 -47 -295 -50 -35 -6 -96 -17 -110 -21 -5 -1
-30 -5 -55 -9 -25 -4 -123 -22 -218 -41 -96 -19 -187 -36 -203 -39 -16 -3 -60
-12 -97 -19 -37 -8 -87 -17 -112 -21 -24 -4 -47 -8 -51 -10 -3 -2 -21 -7 -40
-10 -55 -10 -633 -133 -754 -161 -60 -14 -121 -28 -135 -31 -14 -2 -90 -20
-170 -38 -80 -19 -156 -36 -170 -39 -14 -3 -72 -17 -130 -31 -58 -14 -154 -37
-215 -51 -60 -14 -200 -48 -310 -76 -110 -27 -207 -51 -215 -53 -21 -5 -456
-115 -645 -164 -279 -73 -777 -209 -1125 -307 -107 -31 -202 -57 -210 -59 -8
-2 -62 -18 -120 -35 -461 -135 -592 -174 -640 -190 -30 -10 -116 -38 -190 -61
-236 -73 -399 -128 -485 -164 -16 -6 -57 -22 -90 -35 -114 -43 -300 -138 -394
-200 -82 -54 -214 -172 -261 -235 -140 -184 -213 -394 -284 -808 -3 -15 -10
-53 -15 -85 -6 -31 -13 -79 -16 -107 -3 -27 -8 -57 -10 -65 -2 -8 -7 -40 -10
-70 -3 -30 -8 -66 -10 -80 -2 -14 -7 -43 -9 -65 -3 -22 -10 -78 -16 -125 -14
-113 -18 -145 -25 -210 -3 -30 -8 -71 -10 -90 -2 -19 -7 -60 -10 -90 -4 -30
-8 -66 -10 -80 -2 -14 -6 -59 -10 -100 -4 -41 -8 -86 -10 -100 -2 -14 -6 -59
-10 -100 -5 -73 -12 -142 -20 -225 -2 -22 -6 -78 -9 -125 -4 -47 -9 -101 -11
-120 -3 -19 -7 -75 -10 -125 -3 -49 -7 -106 -10 -125 -2 -19 -7 -80 -10 -135
-3 -55 -8 -127 -10 -160 -6 -81 -19 -293 -30 -505 -3 -63 -8 -149 -10 -190 -4
-62 -10 -199 -19 -450 -1 -19 2 -38 7 -41 4 -3 36 0 70 7 34 7 145 29 247 48
102 19 199 37 215 41 17 3 45 8 64 11 18 3 43 8 55 10 214 42 180 36 531 99
301 54 498 90 545 99 14 3 81 15 150 26 69 12 143 25 165 30 22 5 59 11 83 15
38 5 154 26 222 39 14 3 93 17 175 31 83 14 186 32 230 40 44 8 96 17 115 20
19 3 61 10 92 16 32 5 70 12 85 15 16 2 51 9 78 14 28 5 64 11 80 14 17 2 100
16 185 31 85 15 165 29 177 30 12 2 34 6 50 9 15 4 42 8 58 11 17 2 98 16 180
30 146 25 183 32 235 40 44 7 204 35 225 39 11 2 55 9 98 16 89 13 103 16 187
30 92 17 95 17 265 45 88 14 171 28 185 30 155 26 343 56 375 60 22 3 51 7 65
10 14 3 41 8 60 11 19 3 46 7 60 10 14 2 72 11 130 19 166 24 172 25 194 30
12 3 41 7 66 10 25 3 59 7 75 9 17 3 71 10 120 16 50 6 104 13 120 16 17 3
109 6 205 9 212 4 305 -6 436 -46 276 -85 464 -281 548 -571 23 -78 56 -247
71 -358 31 -230 151 -681 310 -1170 26 -80 53 -163 60 -185 59 -187 363 -1004
420 -1130 12 -27 26 -61 30 -75 4 -14 16 -45 27 -70 21 -46 27 -62 71 -165 40
-95 166 -384 200 -455 259 -558 482 -969 707 -1305 142 -213 173 -256 178
-250 3 2 6 24 7 47 6 91 16 224 20 248 2 14 6 68 10 121 3 53 7 112 10 130 2
19 7 72 10 119 3 47 8 105 10 130 2 25 6 81 10 125 3 44 7 96 9 115 3 19 8 76
11 125 4 50 8 106 10 125 2 19 6 76 10 125 3 50 8 106 10 125 2 19 7 73 10
120 4 47 8 101 10 120 2 19 6 76 10 125 4 50 8 101 10 115 2 14 7 68 10 120 3
52 8 111 9 130 2 19 7 76 11 125 3 50 8 106 10 125 2 19 7 69 10 110 3 41 8
95 10 120 2 25 7 79 10 120 3 41 7 95 10 120 3 25 7 77 10 115 3 39 8 93 10
120 2 28 7 82 10 120 3 39 8 93 10 120 3 28 7 79 10 115 3 36 7 88 10 115 3
28 7 82 10 120 8 109 15 196 20 240 3 22 7 74 10 115 3 41 7 93 10 115 2 22 7
83 10 135 4 52 9 103 11 113 2 10 6 55 9 100 7 98 16 197 30 342 2 22 7 81 11
130 3 50 7 97 9 105 2 9 6 60 10 115 4 55 8 111 10 125 2 14 7 61 10 105 4 44
8 96 10 115 4 38 15 161 20 225 8 95 16 183 20 220 2 22 7 72 10 110 3 39 8
88 10 110 2 22 7 76 10 120 4 44 8 90 10 103 2 12 7 62 10 110 4 48 8 98 10
112 2 14 6 59 10 100 3 41 8 91 10 110 2 19 7 73 10 120 4 47 8 96 10 110 2
14 7 54 10 90 3 36 7 85 10 110 2 25 7 74 10 110 4 36 8 79 10 95 2 17 7 66
11 110 3 44 7 91 9 105 1 14 6 61 9 104 4 43 9 86 11 95 1 9 6 54 10 101 3 47
8 101 10 120 2 19 7 64 10 100 3 36 8 81 10 100 2 19 7 64 10 100 3 36 8 81
10 100 2 19 7 64 10 100 4 36 8 76 10 90 2 14 6 63 10 110 3 47 8 92 10 100 2
8 7 49 10 90 4 41 8 86 10 100 2 14 6 54 10 90 3 36 7 76 10 90 2 14 7 54 10
90 3 36 7 79 9 95 2 17 7 59 11 95 4 36 8 76 10 90 2 14 6 57 10 95 4 39 9 77
10 85 2 8 6 44 9 80 4 36 9 76 11 90 3 14 7 50 10 80 8 76 14 119 20 160 3 19
7 55 10 80 2 25 7 61 9 80 3 19 8 58 11 85 4 28 8 61 10 75 2 14 6 45 10 70 3
25 8 56 10 70 2 14 7 43 10 65 42 292 74 440 120 556 5 14 -15 16 -200 15
-114 -1 -207 -2 -208 -3z m-760 -1072 c91 -42 144 -132 136 -229 -9 -114 -109
-205 -223 -204 -69 1 -119 21 -164 68 -91 93 -85 243 12 325 72 60 161 75 239
40z"/>
<path d="M12797 14133 c-9 -15 -51 -279 -92 -573 -8 -63 -18 -131 -21 -150 -2
-19 -7 -55 -9 -80 -3 -25 -9 -79 -14 -120 -11 -84 -18 -141 -26 -215 -3 -27
-12 -104 -20 -170 -7 -66 -17 -149 -20 -185 -4 -36 -8 -72 -10 -80 -3 -16 -16
-143 -20 -195 -2 -16 -5 -48 -8 -70 -3 -22 -9 -71 -12 -110 -3 -38 -8 -81 -10
-95 -2 -14 -6 -52 -9 -85 -4 -33 -9 -82 -12 -110 -3 -27 -7 -68 -9 -90 -2 -22
-7 -74 -11 -115 -3 -41 -8 -84 -10 -95 -2 -11 -7 -57 -10 -102 l-7 -83 29 -2
c38 -2 70 -5 124 -12 25 -3 77 -8 115 -11 39 -4 84 -8 100 -10 28 -3 141 -14
210 -20 17 -2 57 -6 90 -9 33 -4 78 -9 100 -11 22 -2 72 -7 110 -11 39 -3 81
-7 95 -9 14 -1 57 -5 95 -9 39 -4 93 -9 120 -11 28 -3 74 -7 103 -10 28 -3 78
-8 110 -11 162 -15 258 -24 307 -28 22 -2 81 -8 130 -12 167 -16 373 -11 437
10 136 44 183 160 132 321 -18 56 -111 236 -157 305 -75 111 -403 529 -506
645 -20 22 -54 62 -76 90 -37 45 -103 123 -115 135 -3 3 -27 32 -55 65 -27 33
-52 62 -55 65 -3 3 -29 34 -59 70 -30 36 -62 72 -70 81 -9 9 -25 27 -35 40
-40 49 -437 506 -618 710 -13 15 -48 55 -78 90 -54 62 -110 125 -202 227 -26
29 -49 49 -51 45z"/>
<path d="M8358 8325 c-2 -2 -34 -6 -72 -10 -38 -3 -112 -12 -165 -19 -53 -8
-116 -17 -141 -20 -25 -3 -54 -8 -65 -10 -11 -2 -47 -7 -80 -12 -33 -4 -62 -8
-65 -9 -5 -1 -69 -11 -139 -22 -18 -2 -41 -6 -50 -8 -9 -1 -52 -8 -96 -15
-121 -17 -155 -23 -210 -34 -11 -2 -45 -7 -75 -11 -30 -4 -64 -9 -75 -11 -56
-11 -134 -24 -170 -29 -22 -4 -51 -8 -65 -10 -29 -5 -263 -44 -300 -50 -14 -3
-133 -23 -265 -45 -132 -22 -249 -42 -260 -44 -11 -2 -40 -7 -65 -11 -25 -4
-52 -9 -60 -10 -8 -1 -35 -6 -60 -10 -25 -4 -54 -9 -65 -11 -11 -2 -63 -11
-115 -20 -52 -9 -103 -18 -113 -20 -31 -5 -249 -42 -287 -48 -19 -3 -71 -12
-115 -20 -44 -9 -93 -17 -110 -20 -55 -9 -210 -36 -235 -41 -14 -3 -52 -10
-85 -15 -33 -6 -109 -19 -170 -30 -60 -11 -175 -31 -255 -45 -197 -34 -238
-41 -500 -89 -74 -14 -148 -27 -165 -30 -16 -2 -55 -9 -85 -15 -97 -18 -114
-21 -155 -27 -22 -3 -56 -9 -75 -14 -19 -5 -53 -11 -75 -15 -23 -3 -52 -8 -65
-10 -14 -3 -63 -12 -110 -20 -47 -9 -97 -18 -110 -20 -14 -3 -86 -17 -160 -31
-74 -13 -196 -36 -270 -50 -74 -15 -146 -28 -160 -30 -14 -3 -74 -14 -135 -26
-60 -11 -119 -22 -130 -24 -11 -2 -76 -15 -145 -29 -69 -13 -136 -26 -150 -29
-14 -2 -36 -7 -50 -10 -14 -3 -37 -8 -53 -10 -15 -3 -35 -7 -45 -10 -9 -3 -35
-7 -57 -11 -22 -3 -69 -12 -105 -21 -81 -19 -108 -25 -140 -30 -14 -3 -41 -9
-60 -14 -19 -5 -47 -11 -62 -14 -49 -8 -322 -85 -433 -122 -166 -54 -253 -91
-390 -168 -41 -22 -131 -92 -163 -126 -46 -48 -115 -155 -135 -211 -58 -154
-53 -359 18 -789 2 -14 7 -45 10 -70 4 -24 8 -47 10 -50 1 -3 6 -27 10 -55 6
-47 35 -196 60 -315 3 -14 10 -45 15 -70 20 -103 109 -469 135 -555 8 -27 30
-108 50 -180 52 -185 137 -454 224 -705 42 -124 166 -462 181 -495 5 -11 34
-83 65 -160 304 -753 705 -1518 1041 -1986 221 -307 428 -403 789 -365 33 3
87 8 120 11 33 3 80 7 105 10 25 3 70 7 100 10 30 3 75 7 100 10 25 2 70 7
100 10 121 12 226 23 330 35 47 5 117 12 155 15 39 4 81 8 95 10 14 2 50 7 80
10 30 3 71 8 90 10 19 2 60 7 90 10 127 14 230 26 265 31 17 3 48 7 70 9 22 2
99 11 170 20 72 9 148 18 170 21 22 2 90 11 150 19 61 8 133 17 160 21 28 3
61 7 75 9 14 2 48 7 75 10 65 8 113 14 150 20 17 3 46 7 65 9 30 3 173 23 300
42 19 3 96 14 170 24 74 10 153 22 175 25 22 4 54 8 70 11 17 2 41 6 55 9 14
2 43 7 65 10 22 3 65 10 95 15 30 5 75 12 100 15 85 11 864 142 945 159 11 2
40 7 65 11 25 4 54 9 65 11 11 2 45 8 75 14 30 6 66 12 80 15 14 3 52 10 85
16 33 6 173 33 310 61 138 27 261 52 275 54 56 11 357 76 390 84 19 5 51 12
70 15 19 3 72 15 117 25 46 11 93 21 105 24 72 13 629 151 858 213 337 90 593
165 946 279 219 70 660 227 672 238 2 3 -26 38 -64 77 -38 39 -73 76 -79 83
-210 237 -426 559 -661 981 -69 126 -364 706 -364 718 0 3 -20 47 -44 98 -58
124 -203 455 -261 599 -26 63 -53 129 -61 145 -46 102 -373 973 -389 1035 -2
8 -35 110 -73 225 -101 301 -221 697 -237 778 -2 9 -6 20 -8 25 -12 19 -83
347 -113 522 -44 259 -42 245 -65 325 -61 205 -186 320 -394 359 -70 13 -376
22 -387 11z"/>
</g>
</svg>
